<?xml version="1.0" encoding="utf-8"?>
<!-- Generator: Fusion 360, Shaper Origin Export Add-In, Version 1.5.0  -->
<svg enable-background="new 0 0 46.25 46.25" height="46.25cm" shaper:fusionaddin="version:1.5.0" version="1.1" viewBox="0 0 46.25 46.25" width="46.25cm" x="0cm" xml:space="preserve" xmlns="http://www.w3.org/2000/svg" xmlns:shaper="http://www.shapertools.com/namespaces/shaper" xmlns:xlink="http://www.w3.org/1999/xlink" y="0cm"><path d="M-6.9616528,39.981699 L-7,39.25 -7,7 -6.9616528,6.268301 -6.8470325,5.5446186 -6.6573963,4.8368816 -6.3948174,4.1528435 -6.0621777,3.5 -5.6631184,2.8855038 -5.202013,2.3160858 -4.6839142,1.797987 -4.1144962,1.3368816 -3.5,0.9378223 -2.8471565,0.6051826 -2.1631184,0.3426037 -1.4553814,0.1529675 -0.731699,0.0383472 0,0 32.25,0 32.981699,0.0383472 33.7053814,0.1529675 34.4131184,0.3426037 35.0971565,0.6051826 35.75,0.9378223 36.3644962,1.3368816 36.9339142,1.797987 37.452013,2.3160858 37.9131184,2.8855038 38.3121777,3.5 38.6448174,4.1528435 38.9073963,4.8368816 39.0970325,5.5446186 39.2116528,6.268301 39.25,7 39.25,39.25 39.2116528,39.981699 39.0970325,40.7053814 38.9073963,41.4131184 38.6448174,42.0971565 38.3121777,42.75 37.9131184,43.3644962 37.452013,43.9339142 36.9339142,44.452013 36.3644962,44.9131184 35.75,45.3121777 35.0971565,45.6448174 34.4131184,45.9073963 33.7053814,46.0970325 32.981699,46.2116528 32.25,46.25 0,46.25 -0.731699,46.2116528 -1.4553814,46.0970325 -2.1631184,45.9073963 -2.8471565,45.6448174 -3.5,45.3121777 -4.1144962,44.9131184 -4.6839142,44.452013 -5.202013,43.9339142 -5.6631184,43.3644962 -6.0621777,42.75 -6.3948174,42.0971565 -6.6573963,41.4131184 -6.8470325,40.7053814 -6.9616528,39.981699z" fill="rgb(0,0,0)" shaper:cutDepth="0.06" shaper:pathType="exterior" transform="matrix(1,0,0,-1,7,46.25)" vector-effect="non-scaling-stroke" /><path d="M3.125,30.6305537 L3.125,35.7444468 -1.3037605,33.1875 -1.3037605,28.073607 3.125,30.6305537z" fill="rgb(255,255,255)" shaper:cutDepth="0.06" shaper:pathType="interior" stroke="rgb(0,0,0)" transform="matrix(1,0,0,-1,7,46.25)" vector-effect="non-scaling-stroke" /><path d="M16.125,3 L11.6962385,5.5569458 16.125,8.1138926 20.5537615,5.5569458 16.125,3z" fill="rgb(255,255,255)" shaper:cutDepth="0.06" shaper:pathType="interior" stroke="rgb(0,0,0)" transform="matrix(1,0,0,-1,7,46.25)" vector-effect="non-scaling-stroke" /><path d="M9.6962385,6.711647 L5.6962385,9.0210485 16.125,15.0420961 26.5537615,9.0210485 22.5537615,6.711647 16.125,10.4232941 9.6962385,6.711647z" fill="rgb(255,255,255)" shaper:cutDepth="0.06" shaper:pathType="interior" stroke="rgb(0,0,0)" transform="matrix(1,0,0,-1,7,46.25)" vector-effect="non-scaling-stroke" /><path d="M5.125,29.475853 L5.125,36.899147 9.125,39.2085476 9.125,27.1664519 -1.3037605,21.1454037 -1.3037605,25.7642059 5.125,29.475853z" fill="rgb(255,255,255)" shaper:cutDepth="0.06" shaper:pathType="interior" stroke="rgb(0,0,0)" transform="matrix(1,0,0,-1,7,46.25)" vector-effect="non-scaling-stroke" /><path d="M-1.3037605,14.2172003 L-1.3037605,18.8360028 11.125,26.0117514 11.125,40.3632488 15.125,42.6726494 15.125,23.7023503 -1.3037605,14.2172003z" fill="rgb(255,255,255)" shaper:cutDepth="0.06" shaper:pathType="interior" stroke="rgb(0,0,0)" transform="matrix(1,0,0,-1,7,46.25)" vector-effect="non-scaling-stroke" /><path d="M33.5537605,33.1875 L33.5537605,28.073607 29.125,30.6305537 29.125,35.7444468 33.5537605,33.1875z" fill="rgb(255,255,255)" shaper:cutDepth="0.06" shaper:pathType="interior" stroke="rgb(0,0,0)" transform="matrix(1,0,0,-1,7,46.25)" vector-effect="non-scaling-stroke" /><path d="M23.125,27.1664519 L23.125,39.2085476 27.125,36.899147 27.125,29.475853 33.5537605,25.7642059 33.5537605,21.1454037 23.125,27.1664519z" fill="rgb(255,255,255)" shaper:cutDepth="0.06" shaper:pathType="interior" stroke="rgb(0,0,0)" transform="matrix(1,0,0,-1,7,46.25)" vector-effect="non-scaling-stroke" /><path d="M3.6962385,10.1757488 L-0.3037605,12.4851494 16.125,21.9702995 32.5537605,12.4851494 28.5537615,10.1757488 16.125,17.3514972 3.6962385,10.1757488z" fill="rgb(255,255,255)" shaper:cutDepth="0.06" shaper:pathType="interior" stroke="rgb(0,0,0)" transform="matrix(1,0,0,-1,7,46.25)" vector-effect="non-scaling-stroke" /><path d="M17.125,23.7023503 L17.125,42.6726494 21.125,40.3632488 21.125,26.0117514 33.5537605,18.8360028 33.5537605,14.2172003 17.125,23.7023503z" fill="rgb(255,255,255)" shaper:cutDepth="0.06" shaper:pathType="interior" stroke="rgb(0,0,0)" transform="matrix(1,0,0,-1,7,46.25)" vector-effect="non-scaling-stroke" /></svg>